<svg width="24" height="18" viewBox="0 0 24 18" fill="none" xmlns="http://www.w3.org/2000/svg">
<path d="M23 2V15.883L22 16V0C18.105 0.119 14.495 0.762 11.998 2.316C9.502 0.762 5.896 0.119 2 0V16L1 15.883V2H0V17H9.057C10.536 17 10.698 18 11.998 18C13.302 18 13.459 17 14.94 17H24V2H23ZM11 15.645C9.054 14.873 6.863 14.376 4 14.161V2.11C6.352 2.307 8.996 2.785 11 4.032V15.645ZM20 14.161C17.137 14.376 14.946 14.873 13 15.645V4.032C15.004 2.785 17.648 2.307 20 2.11V14.161V14.161Z" fill="#953553"/>
</svg>
